<mxfile host="Electron" modified="2025-01-17T12:27:20.800Z" agent="Mozilla/5.0 (Windows NT 10.0; Win64; x64) AppleWebKit/537.36 (KHTML, like Gecko) draw.io/24.2.5 Chrome/120.0.6099.109 Electron/28.1.0 Safari/537.36" etag="PnizBBodapaCgXVNRsQD" version="24.2.5" type="device">
  <diagram id="Oks_wrgNJr9d7E9b0G60" name="Page-1">
    <mxGraphModel dx="2074" dy="1196" grid="1" gridSize="10" guides="1" tooltips="1" connect="1" arrows="1" fold="1" page="1" pageScale="1" pageWidth="850" pageHeight="1100" math="0" shadow="0">
      <root>
        <mxCell id="0" />
        <mxCell id="1" parent="0" />
        <mxCell id="2hyyOXspFjTeJn09yqCz-1" value="2" style="rounded=1;whiteSpace=wrap;html=1;fillColor=#dae8fc;strokeColor=#6c8ebf;" parent="1" vertex="1">
          <mxGeometry x="210" y="430" width="60" height="30" as="geometry" />
        </mxCell>
        <mxCell id="2hyyOXspFjTeJn09yqCz-2" value="1" style="rounded=1;whiteSpace=wrap;html=1;fillColor=#f5f5f5;strokeColor=#666666;fontColor=#333333;" parent="1" vertex="1">
          <mxGeometry x="210" y="400" width="60" height="30" as="geometry" />
        </mxCell>
        <mxCell id="2hyyOXspFjTeJn09yqCz-3" value="3" style="rounded=1;whiteSpace=wrap;html=1;fillColor=#fff2cc;strokeColor=#d6b656;" parent="1" vertex="1">
          <mxGeometry x="210" y="370" width="60" height="30" as="geometry" />
        </mxCell>
        <mxCell id="2hyyOXspFjTeJn09yqCz-4" value="2" style="rounded=1;whiteSpace=wrap;html=1;fillColor=#dae8fc;strokeColor=#6c8ebf;" parent="1" vertex="1">
          <mxGeometry x="210" y="340" width="60" height="30" as="geometry" />
        </mxCell>
        <mxCell id="2hyyOXspFjTeJn09yqCz-5" value="4" style="rounded=1;whiteSpace=wrap;html=1;fillColor=#e1d5e7;strokeColor=#9673a6;" parent="1" vertex="1">
          <mxGeometry x="299" y="430" width="60" height="30" as="geometry" />
        </mxCell>
        <mxCell id="2hyyOXspFjTeJn09yqCz-6" value="1" style="rounded=1;whiteSpace=wrap;html=1;fillColor=#f5f5f5;strokeColor=#666666;fontColor=#333333;" parent="1" vertex="1">
          <mxGeometry x="299" y="400" width="60" height="30" as="geometry" />
        </mxCell>
        <mxCell id="2hyyOXspFjTeJn09yqCz-7" value="3" style="rounded=1;whiteSpace=wrap;html=1;fillColor=#fff2cc;strokeColor=#d6b656;" parent="1" vertex="1">
          <mxGeometry x="299" y="370" width="60" height="30" as="geometry" />
        </mxCell>
        <mxCell id="2hyyOXspFjTeJn09yqCz-8" value="2" style="rounded=1;whiteSpace=wrap;html=1;fillColor=#dae8fc;strokeColor=#6c8ebf;" parent="1" vertex="1">
          <mxGeometry x="299" y="340" width="60" height="30" as="geometry" />
        </mxCell>
        <mxCell id="2hyyOXspFjTeJn09yqCz-9" value="" style="endArrow=none;dashed=1;html=1;dashPattern=1 3;strokeWidth=2;" parent="1" edge="1">
          <mxGeometry width="50" height="50" relative="1" as="geometry">
            <mxPoint x="201" y="311" as="sourcePoint" />
            <mxPoint x="381" y="311" as="targetPoint" />
          </mxGeometry>
        </mxCell>
        <mxCell id="2hyyOXspFjTeJn09yqCz-10" value="3" style="rounded=1;whiteSpace=wrap;html=1;fillColor=#fff2cc;strokeColor=#d6b656;" parent="1" vertex="1">
          <mxGeometry x="210" y="250" width="60" height="30" as="geometry" />
        </mxCell>
        <mxCell id="2hyyOXspFjTeJn09yqCz-11" value="1" style="rounded=1;whiteSpace=wrap;html=1;fillColor=#f5f5f5;strokeColor=#666666;fontColor=#333333;" parent="1" vertex="1">
          <mxGeometry x="210" y="220" width="60" height="30" as="geometry" />
        </mxCell>
        <mxCell id="2hyyOXspFjTeJn09yqCz-12" value="3" style="rounded=1;whiteSpace=wrap;html=1;fillColor=#fff2cc;strokeColor=#d6b656;" parent="1" vertex="1">
          <mxGeometry x="210" y="190" width="60" height="30" as="geometry" />
        </mxCell>
        <mxCell id="2hyyOXspFjTeJn09yqCz-13" value="1" style="rounded=1;whiteSpace=wrap;html=1;fillColor=#f5f5f5;strokeColor=#666666;fontColor=#333333;" parent="1" vertex="1">
          <mxGeometry x="210" y="160" width="60" height="30" as="geometry" />
        </mxCell>
        <mxCell id="2hyyOXspFjTeJn09yqCz-14" value="2" style="rounded=1;whiteSpace=wrap;html=1;fillColor=#dae8fc;strokeColor=#6c8ebf;" parent="1" vertex="1">
          <mxGeometry x="299" y="250" width="60" height="30" as="geometry" />
        </mxCell>
        <mxCell id="2hyyOXspFjTeJn09yqCz-15" value="4" style="rounded=1;whiteSpace=wrap;html=1;fillColor=#e1d5e7;strokeColor=#9673a6;" parent="1" vertex="1">
          <mxGeometry x="299" y="220" width="60" height="30" as="geometry" />
        </mxCell>
        <mxCell id="2hyyOXspFjTeJn09yqCz-16" value="2" style="rounded=1;whiteSpace=wrap;html=1;fillColor=#dae8fc;strokeColor=#6c8ebf;" parent="1" vertex="1">
          <mxGeometry x="299" y="190" width="60" height="30" as="geometry" />
        </mxCell>
        <mxCell id="2hyyOXspFjTeJn09yqCz-17" value="2" style="rounded=1;whiteSpace=wrap;html=1;fillColor=#dae8fc;strokeColor=#6c8ebf;" parent="1" vertex="1">
          <mxGeometry x="299" y="160" width="60" height="30" as="geometry" />
        </mxCell>
        <mxCell id="2hyyOXspFjTeJn09yqCz-18" value="Repartition 后" style="text;html=1;align=center;verticalAlign=middle;resizable=0;points=[];autosize=1;strokeColor=none;fontStyle=1" parent="1" vertex="1">
          <mxGeometry x="380" y="205" width="100" height="30" as="geometry" />
        </mxCell>
        <mxCell id="2hyyOXspFjTeJn09yqCz-19" value="Repartition 前" style="text;html=1;align=center;verticalAlign=middle;resizable=0;points=[];autosize=1;strokeColor=none;fontStyle=1" parent="1" vertex="1">
          <mxGeometry x="380" y="386" width="100" height="30" as="geometry" />
        </mxCell>
        <mxCell id="2hyyOXspFjTeJn09yqCz-20" value="Partition0" style="text;html=1;align=center;verticalAlign=middle;resizable=0;points=[];autosize=1;strokeColor=none;" parent="1" vertex="1">
          <mxGeometry x="205" y="469" width="70" height="20" as="geometry" />
        </mxCell>
        <mxCell id="2hyyOXspFjTeJn09yqCz-21" value="Partition1" style="text;html=1;align=center;verticalAlign=middle;resizable=0;points=[];autosize=1;strokeColor=none;" parent="1" vertex="1">
          <mxGeometry x="294" y="469" width="70" height="20" as="geometry" />
        </mxCell>
        <mxCell id="Xdscz1qhkzHYXbSBUcDS-1" value="左表" style="text;html=1;align=center;verticalAlign=middle;resizable=0;points=[];autosize=1;strokeColor=none;fillColor=none;fontStyle=1;fontSize=13;" parent="1" vertex="1">
          <mxGeometry x="255" y="108" width="50" height="30" as="geometry" />
        </mxCell>
        <mxCell id="Xdscz1qhkzHYXbSBUcDS-2" value="6" style="rounded=1;whiteSpace=wrap;html=1;fillColor=#f8cecc;strokeColor=#b85450;" parent="1" vertex="1">
          <mxGeometry x="504" y="430" width="60" height="30" as="geometry" />
        </mxCell>
        <mxCell id="Xdscz1qhkzHYXbSBUcDS-3" value="2" style="rounded=1;whiteSpace=wrap;html=1;fillColor=#dae8fc;strokeColor=#6c8ebf;" parent="1" vertex="1">
          <mxGeometry x="504" y="400" width="60" height="30" as="geometry" />
        </mxCell>
        <mxCell id="Xdscz1qhkzHYXbSBUcDS-4" value="5" style="rounded=1;whiteSpace=wrap;html=1;fillColor=#d5e8d4;strokeColor=#82b366;" parent="1" vertex="1">
          <mxGeometry x="504" y="370" width="60" height="30" as="geometry" />
        </mxCell>
        <mxCell id="Xdscz1qhkzHYXbSBUcDS-5" value="1" style="rounded=1;whiteSpace=wrap;html=1;fillColor=#f5f5f5;strokeColor=#666666;fontColor=#333333;" parent="1" vertex="1">
          <mxGeometry x="504" y="340" width="60" height="30" as="geometry" />
        </mxCell>
        <mxCell id="Xdscz1qhkzHYXbSBUcDS-6" value="3" style="rounded=1;whiteSpace=wrap;html=1;fillColor=#fff2cc;strokeColor=#d6b656;" parent="1" vertex="1">
          <mxGeometry x="593" y="430" width="60" height="30" as="geometry" />
        </mxCell>
        <mxCell id="Xdscz1qhkzHYXbSBUcDS-7" value="1" style="rounded=1;whiteSpace=wrap;html=1;fillColor=#f5f5f5;strokeColor=#666666;fontColor=#333333;" parent="1" vertex="1">
          <mxGeometry x="593" y="400" width="60" height="30" as="geometry" />
        </mxCell>
        <mxCell id="Xdscz1qhkzHYXbSBUcDS-8" value="4" style="rounded=1;whiteSpace=wrap;html=1;fillColor=#e1d5e7;strokeColor=#9673a6;" parent="1" vertex="1">
          <mxGeometry x="593" y="370" width="60" height="30" as="geometry" />
        </mxCell>
        <mxCell id="Xdscz1qhkzHYXbSBUcDS-9" value="2" style="rounded=1;whiteSpace=wrap;html=1;fillColor=#dae8fc;strokeColor=#6c8ebf;" parent="1" vertex="1">
          <mxGeometry x="593" y="340" width="60" height="30" as="geometry" />
        </mxCell>
        <mxCell id="Xdscz1qhkzHYXbSBUcDS-10" value="" style="endArrow=none;dashed=1;html=1;dashPattern=1 3;strokeWidth=2;" parent="1" edge="1">
          <mxGeometry width="50" height="50" relative="1" as="geometry">
            <mxPoint x="495" y="311" as="sourcePoint" />
            <mxPoint x="675" y="311" as="targetPoint" />
          </mxGeometry>
        </mxCell>
        <mxCell id="Xdscz1qhkzHYXbSBUcDS-11" value="3" style="rounded=1;whiteSpace=wrap;html=1;fillColor=#fff2cc;strokeColor=#d6b656;" parent="1" vertex="1">
          <mxGeometry x="504" y="250" width="60" height="30" as="geometry" />
        </mxCell>
        <mxCell id="Xdscz1qhkzHYXbSBUcDS-12" value="1" style="rounded=1;whiteSpace=wrap;html=1;fillColor=#f5f5f5;strokeColor=#666666;fontColor=#333333;" parent="1" vertex="1">
          <mxGeometry x="504" y="220" width="60" height="30" as="geometry" />
        </mxCell>
        <mxCell id="Xdscz1qhkzHYXbSBUcDS-13" value="5" style="rounded=1;whiteSpace=wrap;html=1;fillColor=#d5e8d4;strokeColor=#82b366;" parent="1" vertex="1">
          <mxGeometry x="504" y="190" width="60" height="30" as="geometry" />
        </mxCell>
        <mxCell id="Xdscz1qhkzHYXbSBUcDS-14" value="1" style="rounded=1;whiteSpace=wrap;html=1;fillColor=#f5f5f5;strokeColor=#666666;fontColor=#333333;" parent="1" vertex="1">
          <mxGeometry x="504" y="160" width="60" height="30" as="geometry" />
        </mxCell>
        <mxCell id="Xdscz1qhkzHYXbSBUcDS-15" value="6" style="rounded=1;whiteSpace=wrap;html=1;fillColor=#f8cecc;strokeColor=#b85450;" parent="1" vertex="1">
          <mxGeometry x="593" y="250" width="60" height="30" as="geometry" />
        </mxCell>
        <mxCell id="Xdscz1qhkzHYXbSBUcDS-16" value="2" style="rounded=1;whiteSpace=wrap;html=1;fillColor=#dae8fc;strokeColor=#6c8ebf;" parent="1" vertex="1">
          <mxGeometry x="593" y="220" width="60" height="30" as="geometry" />
        </mxCell>
        <mxCell id="Xdscz1qhkzHYXbSBUcDS-17" value="4" style="rounded=1;whiteSpace=wrap;html=1;fillColor=#e1d5e7;strokeColor=#9673a6;" parent="1" vertex="1">
          <mxGeometry x="593" y="190" width="60" height="30" as="geometry" />
        </mxCell>
        <mxCell id="Xdscz1qhkzHYXbSBUcDS-18" value="2" style="rounded=1;whiteSpace=wrap;html=1;fillColor=#dae8fc;strokeColor=#6c8ebf;" parent="1" vertex="1">
          <mxGeometry x="593" y="160" width="60" height="30" as="geometry" />
        </mxCell>
        <mxCell id="Xdscz1qhkzHYXbSBUcDS-19" value="Partition0" style="text;html=1;align=center;verticalAlign=middle;resizable=0;points=[];autosize=1;strokeColor=none;" parent="1" vertex="1">
          <mxGeometry x="499" y="469" width="70" height="20" as="geometry" />
        </mxCell>
        <mxCell id="Xdscz1qhkzHYXbSBUcDS-20" value="Partition1" style="text;html=1;align=center;verticalAlign=middle;resizable=0;points=[];autosize=1;strokeColor=none;" parent="1" vertex="1">
          <mxGeometry x="588" y="469" width="70" height="20" as="geometry" />
        </mxCell>
        <mxCell id="Xdscz1qhkzHYXbSBUcDS-21" value="右表" style="text;html=1;align=center;verticalAlign=middle;resizable=0;points=[];autosize=1;strokeColor=none;fillColor=none;fontStyle=1;fontSize=13;" parent="1" vertex="1">
          <mxGeometry x="549" y="108" width="50" height="30" as="geometry" />
        </mxCell>
        <mxCell id="DnZOnnnPmG3VqHlweJRb-1" value="" style="endArrow=classic;html=1;rounded=0;" edge="1" parent="1">
          <mxGeometry width="50" height="50" relative="1" as="geometry">
            <mxPoint x="430" y="352" as="sourcePoint" />
            <mxPoint x="430" y="262" as="targetPoint" />
          </mxGeometry>
        </mxCell>
      </root>
    </mxGraphModel>
  </diagram>
</mxfile>
